<svg id="a2e365c3-e17b-4f06-bfdf-b914763d1d61" data-name="Layer 1" xmlns="http://www.w3.org/2000/svg" viewBox="0 0 610.66 457.53">
  <defs>
    <style>
      .eb1399d7-cab8-4f70-ae97-059421686f9e {
        fill: none;
        stroke-width: 2px;
        stroke-miterlimit: 10;
      }
    </style>
  </defs>
  <path class="eb1399d7-cab8-4f70-ae97-059421686f9e" d="M302.67,437.1c108.38,0,242-8.52,267.36-22.88"/>
  <path class="eb1399d7-cab8-4f70-ae97-059421686f9e" d="M302.67,437.1c0-129.76-231.8-139-245.83-234.74"/>
  <path class="eb1399d7-cab8-4f70-ae97-059421686f9e" d="M317,331.12c-26.76,45.5-12.84,67.95-17.79,78.91,4.95-11,22.44-26.32,17.79-78.91"/>
  <path class="eb1399d7-cab8-4f70-ae97-059421686f9e" d="M230.13,368.31c51.37,12.13,58,37.72,69.3,41.72-11.34-4-34.54-2-69.3-41.72"/>
  <g>
    <path class="eb1399d7-cab8-4f70-ae97-059421686f9e" d="M251.93,282.92c-5,52.56,17.15,67,17.31,79-.16-12,9.17-33.35-17.31-79"/>
    <path class="eb1399d7-cab8-4f70-ae97-059421686f9e" d="M189,353.42c51.68-10.77,68.49,9.61,80.45,8.44-12,1.17-32.13,12.81-80.45-8.44"/>
  </g>
  <g>
    <path class="eb1399d7-cab8-4f70-ae97-059421686f9e" d="M207.25,264c-2,44.05,17.1,55.18,17.74,65.2-.64-10,6.26-28.21-17.74-65.2"/>
    <path class="eb1399d7-cab8-4f70-ae97-059421686f9e" d="M157.67,325.4c42.66-11.14,57.53,5.16,67.46,3.68-9.93,1.48-26.26,12-67.46-3.68"/>
  </g>
  <g>
    <path class="eb1399d7-cab8-4f70-ae97-059421686f9e" d="M429,409.45c-43.82-5-56.22,13.29-66.26,13.23,10,.06,27.71,8.18,66.26-13.23"/>
    <path class="eb1399d7-cab8-4f70-ae97-059421686f9e" d="M371.12,355.78c8.19,43.32-9.09,57-8.29,67.05-.8-10-10.21-27,8.29-67.05"/>
  </g>
  <g>
    <path class="eb1399d7-cab8-4f70-ae97-059421686f9e" d="M463,383.33c-44-2-55.2,17-65.22,17.65,10-.62,28.2,6.3,65.22-17.65"/>
    <path class="eb1399d7-cab8-4f70-ae97-059421686f9e" d="M401.66,333.66c11.09,42.68-5.24,57.53-3.78,67.46-1.46-9.93-12-26.28,3.78-67.46"/>
  </g>
  <g>
    <path class="eb1399d7-cab8-4f70-ae97-059421686f9e" d="M494.22,357.64c-44.05-2-55.18,17.08-65.2,17.71,10-.63,28.2,6.27,65.2-17.71"/>
    <path class="eb1399d7-cab8-4f70-ae97-059421686f9e" d="M432.8,308c11.13,42.67-5.18,57.53-3.71,67.47-1.47-9.94-12-26.27,3.71-67.47"/>
  </g>
  <g>
    <path class="eb1399d7-cab8-4f70-ae97-059421686f9e" d="M524.86,318C480.77,319,471,338.78,461,340.1c9.95-1.32,28.56,4.34,63.85-22.11"/>
    <path class="eb1399d7-cab8-4f70-ae97-059421686f9e" d="M460.21,272.67c14,41.81-1.27,57.75.88,67.56-2.15-9.81-13.78-25.39-.88-67.56"/>
  </g>
  <g>
    <path class="eb1399d7-cab8-4f70-ae97-059421686f9e" d="M542.58,266.36c-42.76,10.77-48,32.22-57.37,35.71,9.42-3.49,28.82-2.1,57.37-35.71"/>
    <path class="eb1399d7-cab8-4f70-ae97-059421686f9e" d="M469.49,236.5c22.92,37.67,11.57,56.59,15.84,65.68-4.27-9.09-19.07-21.71-15.84-65.68"/>
  </g>
  <g>
    <path class="eb1399d7-cab8-4f70-ae97-059421686f9e" d="M515.53,181.8C487.22,215.61,495.6,236,490,244.37c5.58-8.35,22.11-18.61,25.51-62.57"/>
    <path class="eb1399d7-cab8-4f70-ae97-059421686f9e" d="M438.83,200.49c40.65,17.06,42.56,39,51.35,43.9-8.79-4.86-28.17-6.39-51.35-43.9"/>
  </g>
  <g>
    <path class="eb1399d7-cab8-4f70-ae97-059421686f9e" d="M482.46,129.49c-17.93,40.28-4.25,57.6-7.33,67.17,3.08-9.57,16.14-24,7.33-67.17"/>
    <path class="eb1399d7-cab8-4f70-ae97-059421686f9e" d="M413.85,168.54c43.78,5.23,51.66,25.84,61.44,28.1-9.78-2.26-28.85,1.59-61.44-28.1"/>
  </g>
  <g>
    <path class="eb1399d7-cab8-4f70-ae97-059421686f9e" d="M437.36,90.89c-5.68,43.73,12.36,56.43,12.15,66.47.21-10,8.63-27.57-12.15-66.47"/>
    <path class="eb1399d7-cab8-4f70-ae97-059421686f9e" d="M382.74,147.91c43.46-7.49,56.89,10,66.92,9.39-10,.63-27.2,9.76-66.92-9.39"/>
  </g>
  <g>
    <path class="eb1399d7-cab8-4f70-ae97-059421686f9e" d="M381.94,58.23c1.52,44.06,21.4,53.65,22.82,63.59-1.42-9.94,4-28.61-22.82-63.59"/>
    <path class="eb1399d7-cab8-4f70-ae97-059421686f9e" d="M337.35,123.38c41.65-14.47,57.76.61,67.55-1.64-9.79,2.25-25.24,14.06-67.55,1.64"/>
  </g>
  <g>
    <path class="eb1399d7-cab8-4f70-ae97-059421686f9e" d="M320.32,49.16c8.81,43.21,30,49.37,33.05,58.94-3.05-9.57-.78-28.88-33.05-58.94"/>
    <path class="eb1399d7-cab8-4f70-ae97-059421686f9e" d="M287.14,120.8c38.69-21.17,57.07-9,66.35-12.81-9.28,3.85-22.56,18.05-66.35,12.81"/>
  </g>
  <g>
    <path class="eb1399d7-cab8-4f70-ae97-059421686f9e" d="M253.13,43.86c8.8,43.2,30,49.37,33,58.93-3.05-9.56-.78-28.88-33-58.93"/>
    <path class="eb1399d7-cab8-4f70-ae97-059421686f9e" d="M220,115.5c38.68-21.17,57.06-9,66.34-12.81-9.28,3.84-22.56,18-66.34,12.81"/>
  </g>
  <g>
    <path class="eb1399d7-cab8-4f70-ae97-059421686f9e" d="M186.52,33.86c9.43,43.07,30.7,48.93,33.89,58.45-3.19-9.52-1.19-28.87-33.89-58.45"/>
    <path class="eb1399d7-cab8-4f70-ae97-059421686f9e" d="M154.38,106c38.37-21.73,56.93-9.79,66.15-13.77-9.22,4-22.29,18.38-66.15,13.77"/>
  </g>
  <g>
    <path class="eb1399d7-cab8-4f70-ae97-059421686f9e" d="M105.67,31.85c43,9.6,48.81,30.9,58.32,34.12-9.51-3.22-28.87-1.31-58.32-34.12"/>
    <path class="eb1399d7-cab8-4f70-ae97-059421686f9e" d="M177.91,0c-21.88,38.28-10,56.89-14,66.09,4-9.2,18.46-22.22,14-66.09"/>
  </g>
  <g>
    <path class="eb1399d7-cab8-4f70-ae97-059421686f9e" d="M499.47,457.53c-34.4-27.57-54.63-18.76-63.1-24.16,8.47,5.4,19.08,21.7,63.1,24.16"/>
    <path class="eb1399d7-cab8-4f70-ae97-059421686f9e" d="M479.15,381.25c-16.19,41-38.13,43.39-42.8,52.28,4.67-8.89,5.79-28.3,42.8-52.28"/>
  </g>
  <g>
    <path class="eb1399d7-cab8-4f70-ae97-059421686f9e" d="M548.11,453.72c-34.4-27.58-54.63-18.76-63.1-24.16,8.47,5.4,19.08,21.7,63.1,24.16"/>
    <path class="eb1399d7-cab8-4f70-ae97-059421686f9e" d="M527.78,377.43c-16.18,41-38.12,43.4-42.79,52.29,4.67-8.89,5.79-28.31,42.79-52.29"/>
  </g>
  <g>
    <path class="eb1399d7-cab8-4f70-ae97-059421686f9e" d="M584.7,449.36c-34.41-27.58-54.64-18.76-63.1-24.17,8.46,5.41,19.07,21.71,63.1,24.17"/>
    <path class="eb1399d7-cab8-4f70-ae97-059421686f9e" d="M564.37,373.07c-16.19,41-38.13,43.39-42.8,52.28,4.67-8.89,5.8-28.3,42.8-52.28"/>
  </g>
  <g>
    <path class="eb1399d7-cab8-4f70-ae97-059421686f9e" d="M157,236.65c-1.95,44,17.11,55.18,17.74,65.2-.63-10,6.26-28.21-17.74-65.2"/>
    <path class="eb1399d7-cab8-4f70-ae97-059421686f9e" d="M107.45,298.09c42.66-11.14,57.53,5.16,67.47,3.68-9.94,1.48-26.27,12-67.47-3.68"/>
  </g>
  <g>
    <path class="eb1399d7-cab8-4f70-ae97-059421686f9e" d="M119.45,217.26c-2,44.05,17.11,55.18,17.74,65.2-.63-10,6.26-28.21-17.74-65.2"/>
    <path class="eb1399d7-cab8-4f70-ae97-059421686f9e" d="M69.87,278.7c42.66-11.14,57.53,5.16,67.47,3.68-9.94,1.48-26.27,12-67.47-3.68"/>
  </g>
  <g>
    <path class="eb1399d7-cab8-4f70-ae97-059421686f9e" d="M103.5,195.06c-13.69,41.91,1.7,57.74-.38,67.56,2.08-9.82,13.59-25.49.38-67.56"/>
    <path class="eb1399d7-cab8-4f70-ae97-059421686f9e" d="M39.27,241c44.09.69,54,20.38,64,21.62-10-1.24-28.53,4.56-64-21.62"/>
  </g>
  <g>
    <path class="eb1399d7-cab8-4f70-ae97-059421686f9e" d="M56.83,202.36c-.51-3.14-31.11-38.79-11.3-67.5C73.45,155.78,56.32,199.22,56.83,202.36Z"/>
    <path class="eb1399d7-cab8-4f70-ae97-059421686f9e" d="M56.83,202.36l-11.3-67.5Z"/>
  </g>
  <g>
    <path class="eb1399d7-cab8-4f70-ae97-059421686f9e" d="M68.82,213.06c1.64-2.94,44.73-27.79,35.4-63.36C69,160.41,70.46,210.12,68.82,213.06Z"/>
    <path class="eb1399d7-cab8-4f70-ae97-059421686f9e" d="M68.82,213.06l35.4-63.36Z"/>
  </g>
  <g>
    <path class="eb1399d7-cab8-4f70-ae97-059421686f9e" d="M51,218.85c-2.36-2.2-49.07-12.31-51-47.58C35.32,170.75,48.6,216.65,51,218.85Z"/>
    <path class="eb1399d7-cab8-4f70-ae97-059421686f9e" d="M51,218.85,0,171.27Z"/>
  </g>
  <path class="eb1399d7-cab8-4f70-ae97-059421686f9e" d="M51,218.85C52.82,220.77,60.2,228,69.44,232"/>
  <path class="eb1399d7-cab8-4f70-ae97-059421686f9e" d="M68.82,213.06c-2.54,4.71.28,18.94.62,18.94"/>
  <circle class="eb1399d7-cab8-4f70-ae97-059421686f9e" cx="586.37" cy="403.58" r="18.96"/>
  <line class="eb1399d7-cab8-4f70-ae97-059421686f9e" x1="603.47" y1="395.4" x2="604.99" y2="389.09"/>
  <line class="eb1399d7-cab8-4f70-ae97-059421686f9e" x1="603.47" y1="395.4" x2="610.43" y2="390.59"/>
  <line class="eb1399d7-cab8-4f70-ae97-059421686f9e" x1="603.47" y1="395.4" x2="609.71" y2="396.35"/>
  <circle class="eb1399d7-cab8-4f70-ae97-059421686f9e" cx="153.8" cy="38.37" r="4.52"/>
  <path class="eb1399d7-cab8-4f70-ae97-059421686f9e" d="M154.76,42.89a72.56,72.56,0,0,0,2.93,13c19.3,48.75,170.06,48.16,206.13,53,84.92,11.48,138.7,106.45,126.11,179.39-5.87,34-94.79,148.76-187.26,148.76"/>
</svg>
